# xmcd
#
# Track frame offsets:
# 150
# 14967
# 32204
# 47283
# 64685
# 78355
# 95387
# 110506
# 129096
# 142755
# 161055
# 184427
# 200079
# 217166
# 233688
# 249835
# 266879
# 284034
#
# Disc length: 4057 seconds
#
#
# Revision: 26
# Processed by: cddbd v1.5.1PL2 Copyright (c) Steve Scherf et al.
# Submitted via: FreeRIP 2.944 
#
DISCID=0a0fd712
DTITLE=INXS - The Greatest Hits
DYEAR=1994
DGENRE=Rock
TTITLE0=Mystify
TTITLE1=Suicide Blonde
TTITLE2=Taste It
TTITLE3=The Strangest Party (These Are The Times)
TTITLE4=Need You Tonight
TTITLE5=Original Sin
TTITLE6=Heaven Sent
TTITLE7=Disappear
TTITLE8=Never Tear Us Apart
TTITLE9=The Gift
TTITLE10=Devil Inside
TTITLE11=Beautiful Girl
TTITLE12=Deliver Me
TTITLE13=New Sensation
TTITLE14=What You Need
TTITLE15=Listen Like Thieves
TTITLE16=Bitter Tears
TTITLE17=Baby Don't Cry
EXTD=YEAR: 1994
EXTT0=
EXTT1=
EXTT2=
EXTT3=
EXTT4=
EXTT5=
EXTT6=
EXTT7=
EXTT8=
EXTT9=
EXTT10=
EXTT11=
EXTT12=
EXTT13=
EXTT14=
EXTT15=
EXTT16=
EXTT17=
PLAYORDER=
